<?xml version="1.0" encoding="UTF-8" standalone="no"?>
<!-- Created with Inkscape (http://www.inkscape.org/) -->

<svg
   xmlns:dc="http://purl.org/dc/elements/1.1/"
   xmlns:cc="http://creativecommons.org/ns#"
   xmlns:rdf="http://www.w3.org/1999/02/22-rdf-syntax-ns#"
   xmlns:svg="http://www.w3.org/2000/svg"
   xmlns="http://www.w3.org/2000/svg"
   xmlns:sodipodi="http://sodipodi.sourceforge.net/DTD/sodipodi-0.dtd"
   xmlns:inkscape="http://www.inkscape.org/namespaces/inkscape"
   width="3.3956189mm"
   height="3.2971101mm"
   viewBox="0 0 3.3956189 3.2971101"
   version="1.1"
   id="svg8"
   inkscape:version="0.92.4 (5da689c313, 2019-01-14)"
   sodipodi:docname="symbol_test_2.svg">
  <defs
     id="defs2" />
  <sodipodi:namedview
     id="base"
     pagecolor="#ffffff"
     bordercolor="#666666"
     borderopacity="1.0"
     inkscape:pageopacity="0.0"
     inkscape:pageshadow="2"
     inkscape:zoom="5.6"
     inkscape:cx="4.2663302"
     inkscape:cy="31.629065"
     inkscape:document-units="mm"
     inkscape:current-layer="layer1"
     showgrid="false"
     inkscape:window-width="1600"
     inkscape:window-height="829"
     inkscape:window-x="-8"
     inkscape:window-y="-8"
     inkscape:window-maximized="1" />
  <metadata
     id="metadata5">
    <rdf:RDF>
      <cc:Work
         rdf:about="">
        <dc:format>image/svg+xml</dc:format>
        <dc:type
           rdf:resource="http://purl.org/dc/dcmitype/StillImage" />
        <dc:title></dc:title>
      </cc:Work>
    </rdf:RDF>
  </metadata>
  <g
     inkscape:label="Camada 1"
     inkscape:groupmode="layer"
     id="layer1"
     transform="translate(-96.229697,-202.67407)">
    <g
       id="g21"
       transform="translate(9.7565105,-1.0630582)">
      <g
         id="g44"
         transform="translate(-13.489025,-2.8111979)">
        <path
           inkscape:connector-curvature="0"
           id="path35"
           d="m 100.72195,209.19601 -0.64943,-0.64943 v -0.28864 -0.28863 l 0.64943,-0.64943 0.64944,-0.64944 h 0.28863 0.28864 l 0.64943,0.64944 0.64943,0.64943 v 0.28863 0.28864 l -0.64943,0.64943 -0.64943,0.64943 h -0.28864 -0.28863 z"
           style="fill:#f5e6af;stroke-width:0.26458335" />
        <path
           inkscape:connector-curvature="0"
           id="path33"
           d="m 100.77006,209.14791 -0.69754,-0.69754 v -0.19243 -0.19242 l 0.69754,-0.69754 0.69754,-0.69754 h 0.19242 0.19243 l 0.69753,0.69754 0.69754,0.69754 v 0.19242 0.19243 l -0.69754,0.69754 -0.69753,0.69753 h -0.19243 -0.19242 z"
           style="fill:#f6e39c;stroke-width:0.26458335" />
        <path
           inkscape:connector-curvature="0"
           id="path31"
           d="m 100.72833,209.04579 -0.766119,-0.79965 0.848909,-0.84891 0.8489,-0.8489 0.84891,0.8489 0.8489,0.84891 -0.76611,0.79965 -0.76612,0.79965 h -0.16558 -0.16558 z"
           style="fill:#fcda61;stroke-width:0.26458335" />
        <path
           inkscape:connector-curvature="0"
           id="path29"
           d="m 100.78165,209.03708 -0.74608,-0.78289 0.81222,-0.81222 0.81223,-0.81223 0.8141,0.8141 0.8141,0.8141 -0.79374,0.79375 -0.79375,0.79375 -0.0865,-0.0127 -0.0865,-0.0127 z"
           style="fill:#fdd74c;stroke-width:0.26458335" />
        <path
           inkscape:connector-curvature="0"
           id="path27"
           d="m 101.39544,209.18399 v -0.66146 h -0.66146 -0.66146 v -0.26459 -0.26458 h 0.66146 0.66146 v -0.66146 -0.66146 h 0.26458 0.26459 v 0.66146 0.66146 h 0.66145 0.66146 v 0.26458 0.26459 h -0.66146 -0.66145 v 0.66146 0.66145 h -0.26459 -0.26458 z"
           style="fill:#898780;stroke-width:0.26458335" />
        <path
           inkscape:connector-curvature="0"
           id="path25"
           d="m 101.39544,209.05169 v -0.52916 h -0.52917 -0.52916 v -0.26459 -0.26458 h 0.52916 0.52917 v -0.52917 -0.52916 h 0.26458 0.26459 v 0.52916 0.52917 h 0.52916 0.52917 v 0.26458 0.26459 h -0.52917 -0.52916 v 0.52916 0.52917 h -0.26459 -0.26458 z"
           style="fill:#907c36;stroke-width:0.26458335" />
        <path
           inkscape:connector-curvature="0"
           id="path23"
           d="m 101.39544,208.25794 v -0.26458 h 0.26458 0.26459 v 0.26458 0.26459 h -0.26459 -0.26458 z"
           style="fill:#594f2c;stroke-width:0.26458335" />
      </g>
    </g>
  </g>
</svg>
