<?xml version="1.0" encoding="UTF-8" standalone="no"?>
<!-- Created with Inkscape (http://www.inkscape.org/) -->

<svg
   xmlns:dc="http://purl.org/dc/elements/1.1/"
   xmlns:cc="http://creativecommons.org/ns#"
   xmlns:rdf="http://www.w3.org/1999/02/22-rdf-syntax-ns#"
   xmlns:svg="http://www.w3.org/2000/svg"
   xmlns="http://www.w3.org/2000/svg"
   xmlns:sodipodi="http://sodipodi.sourceforge.net/DTD/sodipodi-0.dtd"
   xmlns:inkscape="http://www.inkscape.org/namespaces/inkscape"
   width="3.3956201mm"
   height="3.2971101mm"
   viewBox="0 0 3.3956201 3.2971101"
   version="1.1"
   id="svg8"
   inkscape:version="0.92.4 (5da689c313, 2019-01-14)"
   sodipodi:docname="SVG_Dessalinizadores_Operacao.svg">
  <defs
     id="defs2" />
  <sodipodi:namedview
     id="base"
     pagecolor="#ffffff"
     bordercolor="#666666"
     borderopacity="1.0"
     inkscape:pageopacity="0.0"
     inkscape:pageshadow="2"
     inkscape:zoom="3.959798"
     inkscape:cx="33.14067"
     inkscape:cy="49.043878"
     inkscape:document-units="mm"
     inkscape:current-layer="layer1"
     showgrid="false"
     inkscape:window-width="1600"
     inkscape:window-height="829"
     inkscape:window-x="-8"
     inkscape:window-y="-8"
     inkscape:window-maximized="1" />
  <metadata
     id="metadata5">
    <rdf:RDF>
      <cc:Work
         rdf:about="">
        <dc:format>image/svg+xml</dc:format>
        <dc:type
           rdf:resource="http://purl.org/dc/dcmitype/StillImage" />
        <dc:title></dc:title>
      </cc:Work>
    </rdf:RDF>
  </metadata>
  <g
     inkscape:label="Camada 1"
     inkscape:groupmode="layer"
     id="layer1"
     transform="translate(-111.58827,-182.71628)">
    <g
       id="g45"
       transform="translate(-0.10677258,-0.06950306)">
      <path
         style="fill:#c3fe9b;stroke-width:0.26458332"
         d="m 113.39285,186.08289 h -0.28863 l -0.64943,-0.64943 -0.64944,-0.64943 v -0.28864 -0.28863 l 0.64944,-0.64943 0.64943,-0.64944 h 0.28863 0.28864 l 0.64943,0.64944 0.64943,0.64943 v 0.28863 0.28864 l -0.64943,0.64943 -0.64943,0.64943 z"
         id="path55"
         inkscape:connector-curvature="0" />
      <path
         style="fill:#b1fe7e;stroke-width:0.26458332"
         d="m 113.39285,186.08289 h -0.19242 l -0.69754,-0.69753 -0.69754,-0.69754 v -0.19243 -0.19242 l 0.69754,-0.69754 0.69754,-0.69754 h 0.19242 0.19243 l 0.69754,0.69754 0.69753,0.69754 v 0.19242 0.19243 l -0.69753,0.69754 -0.69754,0.69753 z"
         id="path53"
         inkscape:connector-curvature="0" />
      <path
         style="fill:#6afe09;stroke-width:0.26458332"
         d="m 113.39285,186.08289 h -0.16558 l -0.76611,-0.79965 -0.76612,-0.79965 0.84891,-0.84891 0.8489,-0.8489 0.84891,0.8489 0.8489,0.84891 -0.76611,0.79965 -0.76612,0.79965 z"
         id="path51"
         inkscape:connector-curvature="0" />
      <path
         style="fill:#797f73;stroke-width:0.26458332"
         d="m 113.39285,186.08289 h -0.26458 v -0.66146 -0.66145 h -0.66146 -0.66146 v -0.26459 -0.26458 h 0.66146 0.66146 v -0.66146 -0.66146 h 0.26458 0.26459 v 0.66146 0.66146 h 0.66145 0.66146 v 0.26458 0.26459 h -0.66146 -0.66145 v 0.66145 0.66146 z"
         id="path49"
         inkscape:connector-curvature="0" />
      <path
         style="fill:#327b01;stroke-width:0.26458332"
         d="m 113.39285,185.81831 h -0.26458 v -0.52917 -0.52916 h -0.52917 -0.52916 v -0.26459 -0.26458 h 0.52916 0.52917 v -0.52917 -0.52916 h 0.26458 0.26459 v 0.52916 0.52917 h 0.52916 0.52917 v 0.26458 0.26459 h -0.52917 -0.52916 v 0.52916 0.52917 z"
         id="path47"
         inkscape:connector-curvature="0" />
    </g>
  </g>
</svg>
